<?xml version="1.0" standalone="no"?>
<!DOCTYPE svg PUBLIC "-//W3C//DTD SVG 20010904//EN"
 "http://www.w3.org/TR/2001/REC-SVG-20010904/DTD/svg10.dtd">
<svg version="1.0" xmlns="http://www.w3.org/2000/svg"
 width="1210.000000pt" height="1280.000000pt" viewBox="0 0 1210.000000 1280.000000"
 preserveAspectRatio="xMidYMid meet">
<metadata>
Created by potrace 1.15, written by Peter Selinger 2001-2017
</metadata>
<g transform="translate(0.000000,1280.000000) scale(0.100000,-0.100000)"
fill="#000000" stroke="none">
<path d="M3138 12423 c-320 -2 -498 -7 -498 -13 0 -6 4 -10 10 -10 5 0 7 -6 4
-13 -4 -13 8 -68 93 -417 19 -80 47 -201 63 -270 16 -69 45 -192 65 -275 19
-82 44 -186 54 -230 73 -315 93 -402 98 -418 4 -16 13 -17 90 -11 l85 7 -5
-39 c-4 -21 -7 -79 -9 -129 l-3 -90 475 -7 c261 -3 790 -11 1175 -17 385 -6
997 -16 1360 -21 363 -6 946 -15 1295 -20 349 -5 941 -14 1315 -20 822 -12
1800 -27 2332 -36 l393 -7 2 474 3 474 160 11 c88 6 215 15 283 19 l122 7 0
524 0 524 -417 0 c-230 0 -2135 2 -4233 3 -2098 2 -4039 2 -4312 0z m4284
-273 c28 -44 53 -80 57 -80 3 1 29 36 56 78 49 76 50 77 95 79 81 3 106 -9 77
-39 -22 -24 -117 -174 -117 -186 0 -7 -4 -12 -9 -12 -5 0 -12 -7 -15 -16 -8
-20 2 -56 13 -50 4 3 8 0 8 -7 0 -7 32 -60 72 -119 39 -60 71 -112 71 -118 0
-11 2 -11 -81 -12 l-61 0 -45 71 c-42 66 -46 71 -60 54 -13 -16 -13 -16 -3 6
9 16 9 26 1 34 -6 6 -12 9 -14 6 -2 -2 -28 -41 -57 -86 -30 -46 -58 -83 -63
-83 -4 0 -5 -6 -1 -12 5 -9 2 -8 -9 1 -12 9 -32 12 -63 8 -55 -6 -65 9 -35 52
12 16 21 34 21 39 0 6 4 12 8 14 14 5 122 171 122 186 0 22 -82 132 -93 125
-6 -4 -7 -1 -2 6 4 8 -5 30 -23 55 -17 24 -32 49 -34 56 -4 16 32 28 90 29
l43 1 51 -80z m-1702 15 c44 -42 54 -63 51 -114 -3 -58 -24 -98 -67 -123 -19
-11 -34 -22 -34 -25 0 -3 27 -50 60 -103 33 -53 60 -102 60 -107 0 -6 -7 -17
-16 -24 -14 -12 -20 -9 -43 18 -15 18 -51 75 -81 127 -52 89 -57 95 -87 96
l-33 0 -1 -87 c-2 -124 -8 -148 -39 -148 l-25 0 -3 250 c-1 137 0 256 3 263 4
11 29 13 114 10 106 -3 111 -4 141 -33z m158 23 c8 -8 12 -65 12 -191 0 -148
3 -184 16 -207 35 -59 111 -77 171 -40 54 32 58 48 63 255 l5 190 25 0 25 0 3
-185 c4 -216 -2 -245 -59 -293 -95 -82 -230 -61 -289 44 -24 41 -25 54 -28
217 -2 96 -1 185 2 198 7 26 34 32 54 12z m719 -4 c13 -33 -11 -49 -73 -49
l-59 0 -5 -230 -5 -230 -30 0 -30 0 0 233 0 232 -67 0 c-70 0 -83 7 -73 40 6
19 15 20 171 20 143 0 165 -2 171 -16z m216 -36 c72 -152 195 -451 190 -464
-3 -8 -15 -14 -27 -14 -18 0 -29 15 -59 80 l-36 80 -109 0 -110 0 -20 -42
c-11 -24 -27 -59 -35 -79 -16 -39 -49 -55 -67 -34 -11 13 -10 18 68 200 9 21
17 42 18 45 0 3 17 41 38 85 20 44 49 106 63 138 34 73 53 75 86 5z m1185
-242 c2 -185 0 -236 -10 -236 -9 0 -8 -3 2 -10 9 -6 10 -10 3 -10 -6 0 -15 5
-19 11 -3 6 -20 9 -36 7 -17 -3 -31 0 -33 6 -3 8 -14 224 -15 289 0 4 -22 7
-48 7 -58 0 -69 9 -64 55 4 32 7 35 36 35 38 0 74 23 86 56 11 29 46 45 75 34
19 -7 20 -18 23 -244z m377 240 c108 -45 140 -299 53 -427 -40 -60 -157 -79
-223 -36 -58 37 -79 94 -83 221 -4 103 -2 112 24 161 33 65 79 94 147 95 26 0
63 -6 82 -14z m371 -1 c20 -8 41 -12 47 -8 6 3 7 1 3 -5 -3 -6 1 -15 9 -20 21
-11 47 -86 40 -117 -3 -14 -7 -37 -10 -51 -6 -25 -69 -94 -86 -94 -4 0 -14 -6
-21 -12 -7 -7 -31 -26 -53 -43 l-40 -30 105 -5 105 -5 3 -42 c2 -24 0 -43 -5
-43 -41 -1 -331 -1 -340 -1 -32 2 -3 99 41 140 14 13 23 28 19 34 -3 6 -1 7 5
3 10 -6 51 21 134 87 38 30 47 78 19 106 -40 40 -111 15 -111 -39 0 -35 -23
-49 -67 -43 -42 5 -43 7 -43 42 0 113 135 193 246 146z m2744 -197 c0 -15 -32
-37 -140 -98 -99 -57 -104 -61 -88 -73 9 -6 8 -7 -5 -3 -13 4 -32 -6 -60 -29
-46 -40 -74 -43 -164 -20 -73 19 -186 19 -286 0 -96 -18 -117 -19 -117 -2 0
13 61 44 150 76 95 34 120 35 229 7 112 -29 111 -29 182 30 47 40 96 64 199
100 75 26 100 29 100 12z m-140 -251 c0 -8 -24 -27 -52 -42 -29 -16 -68 -40
-86 -53 -32 -24 -36 -25 -93 -14 -43 8 -77 8 -120 0 -33 -6 -63 -8 -66 -4 -12
12 19 34 72 50 47 15 62 16 110 5 51 -11 57 -11 78 8 31 29 98 58 145 62 6 0
12 -5 12 -12z m-7360 -286 c37 -18 70 -71 70 -113 0 -103 -88 -204 -216 -248
-32 -11 -70 -20 -86 -20 -27 0 -32 -7 -71 -90 l-42 -90 -67 0 c-38 0 -68 2
-68 4 0 3 52 111 115 242 63 130 115 240 115 244 0 19 41 38 98 44 34 3 62 3
62 0 0 -5 -95 -207 -131 -277 -25 -49 -24 -50 9 -33 54 28 114 109 143 192 24
67 18 108 -17 131 -21 13 -33 14 -81 4 -99 -19 -176 -103 -196 -212 -12 -62
-18 -66 -64 -47 -15 6 -30 11 -33 10 -3 0 -6 14 -7 31 -8 115 77 207 221 240
62 14 208 7 246 -12z m2626 -3 c36 -20 49 -34 59 -66 23 -77 -50 -168 -169
-212 l-28 -10 33 -23 c29 -19 35 -30 39 -72 l5 -48 13 45 c17 56 79 123 141
151 30 14 68 21 109 21 58 1 66 -2 88 -27 13 -15 24 -41 24 -56 0 -99 -93
-217 -195 -246 -98 -29 -154 -8 -177 67 l-11 38 -17 -27 c-28 -45 -71 -80
-135 -110 -50 -23 -77 -28 -162 -31 -112 -5 -156 5 -203 45 -25 21 -30 32 -30
71 0 42 4 50 49 92 32 32 60 50 86 54 20 4 39 5 42 3 2 -3 -8 -25 -23 -49 -18
-27 -29 -61 -32 -93 -3 -43 -1 -53 20 -71 46 -42 140 -34 195 18 64 59 99 160
73 209 -21 38 -40 20 -86 -80 l-46 -98 -69 -10 c-49 -6 -69 -6 -69 2 0 6 47
105 104 221 57 116 107 220 110 232 5 14 18 23 39 26 83 13 117 16 117 11 0
-3 -27 -59 -60 -125 -33 -66 -58 -120 -55 -120 3 0 18 6 33 14 62 32 122 125
122 188 0 32 -5 40 -32 54 -102 53 -266 -71 -287 -216 -5 -36 -10 -46 -28 -48
-36 -5 -73 39 -73 86 0 91 101 179 235 206 72 14 211 6 251 -16z m2682 -2 c22
-22 27 -35 27 -79 0 -83 -43 -151 -122 -191 -31 -16 -94 -22 -106 -10 -5 6 13
32 45 63 40 39 99 211 72 211 -67 0 -225 -299 -228 -432 -1 -79 16 -97 79 -80
63 17 125 59 125 86 1 70 88 173 175 205 117 44 211 9 191 -71 -3 -13 4 -2 16
24 20 43 27 48 63 53 74 11 100 10 98 -2 -2 -7 8 -6 28 4 37 18 98 11 116 -14
23 -30 14 -69 -37 -169 -27 -54 -48 -100 -46 -102 9 -8 45 24 50 44 4 13 29
70 56 127 28 58 50 107 50 111 0 3 -7 6 -16 6 -11 0 -14 5 -10 16 3 9 6 18 6
20 0 2 11 4 23 4 18 0 29 11 48 49 23 46 29 51 103 80 43 18 81 29 83 27 3 -3
-11 -37 -31 -77 -20 -39 -36 -73 -36 -75 0 -2 9 -4 20 -4 22 0 23 -1 14 -24
-4 -9 -18 -16 -33 -16 -26 0 -33 -11 -95 -141 -37 -77 -65 -143 -63 -145 14
-14 39 22 94 137 67 139 69 141 156 152 37 5 47 4 47 -8 0 -12 4 -12 28 1 38
20 79 17 102 -6 25 -25 25 -44 -2 -100 -12 -25 -20 -48 -20 -52 1 -5 -3 -8 -8
-8 -6 0 -10 -4 -10 -10 0 -19 28 2 35 27 3 14 30 49 59 78 72 72 169 102 242
75 39 -15 53 -39 54 -89 0 -55 -27 -114 -77 -164 -54 -57 -107 -80 -180 -81
-75 -1 -102 19 -110 83 -5 34 -9 41 -22 35 -28 -12 -70 -16 -96 -10 -33 9 -33
50 0 116 18 36 22 50 12 50 -20 0 -49 -44 -111 -168 l-56 -112 -65 0 c-38 0
-65 4 -65 10 0 7 -6 7 -19 0 -30 -16 -79 -12 -98 8 -17 17 -20 17 -62 -1 -48
-21 -105 -17 -115 9 -12 31 -5 56 39 144 44 88 54 120 36 120 -16 0 -84 -100
-132 -195 l-47 -90 -66 -3 c-36 -2 -66 0 -66 3 0 4 5 15 11 26 10 19 8 19 -33
-2 -31 -17 -61 -23 -106 -23 -60 -1 -65 1 -94 33 -25 28 -33 32 -47 22 -9 -6
-40 -23 -70 -38 -43 -21 -62 -24 -101 -20 -62 7 -87 23 -111 69 -21 42 -25
125 -8 179 23 76 84 180 133 229 101 102 225 135 284 76z m-3788 14 c0 -6 -57
-124 -126 -263 -117 -236 -136 -289 -83 -241 11 10 29 33 41 53 28 45 35 25 8
-22 -34 -58 -85 -90 -142 -91 -36 -1 -52 4 -59 15 -8 16 -12 15 -46 -2 -48
-24 -88 -24 -113 1 -20 20 -20 20 -52 0 -46 -28 -84 -26 -118 8 l-28 28 -28
-23 c-35 -27 -74 -37 -114 -28 -38 8 -48 42 -27 95 l15 40 -28 -15 c-42 -22
-107 -20 -120 4 -11 21 7 85 36 129 9 13 13 27 9 30 -13 13 -57 -51 -115 -167
l-61 -121 -64 0 c-36 0 -65 3 -65 7 0 3 34 77 76 163 l76 157 66 11 c47 8 68
8 73 1 4 -8 13 -7 29 1 25 13 84 7 106 -11 22 -18 17 -52 -16 -114 -17 -32
-29 -60 -27 -62 11 -10 50 39 81 102 41 80 42 85 20 85 -26 0 -11 35 17 38 19
2 31 15 51 56 18 36 34 55 50 59 13 3 47 14 76 26 62 25 63 20 22 -64 -35 -72
-36 -75 -10 -75 22 0 23 -1 14 -24 -3 -9 -17 -16 -30 -16 -17 0 -31 -11 -47
-37 -40 -65 -121 -243 -114 -250 12 -12 57 40 57 66 1 45 39 114 90 162 60 57
119 76 182 61 25 -6 66 -7 98 -2 30 4 57 6 59 4 2 -2 -26 -67 -64 -144 -37
-78 -65 -143 -62 -146 11 -11 27 8 48 54 33 73 188 394 203 422 8 14 28 30 44
35 42 14 112 17 112 5z m-1230 -245 c67 -61 3 -221 -118 -293 -64 -37 -158
-39 -196 -3 -33 31 -41 70 -26 132 16 67 94 147 166 172 61 21 146 17 174 -8z
m2883 -31 c40 -107 14 -220 -61 -262 -21 -12 -63 -24 -93 -28 -50 -6 -58 -4
-87 21 -36 30 -40 59 -17 110 22 45 57 61 124 57 22 -2 23 -3 7 -24 -22 -30
-56 -106 -56 -124 0 -27 40 -15 60 19 26 42 26 116 0 198 -10 35 -18 64 -17
65 5 5 102 22 112 19 5 -1 18 -24 28 -51z m315 47 c10 -5 45 -6 80 -2 34 4 62
4 62 0 0 -5 -40 -91 -90 -191 -67 -138 -86 -184 -75 -186 30 -7 12 -43 -23
-48 -17 -3 -15 -1 -40 -50 -20 -39 -23 -41 -87 -50 -36 -6 -68 -8 -69 -5 -2 3
7 28 20 55 29 60 29 56 4 56 -22 0 -23 1 -14 24 4 9 18 16 33 16 20 0 29 7 37
28 l11 28 -38 -10 c-105 -28 -134 115 -48 236 55 77 180 129 237 99z m304 4
c3 -3 -23 -60 -57 -128 -34 -67 -65 -133 -69 -147 -14 -52 78 65 129 163 l50
96 45 6 c25 3 55 8 68 11 12 2 22 0 22 -5 0 -6 -30 -71 -66 -146 -36 -75 -64
-139 -61 -142 9 -8 45 16 51 34 2 10 8 37 11 61 18 113 188 226 299 198 75
-19 75 -103 1 -169 -23 -21 -127 -71 -168 -81 -24 -6 -28 -11 -25 -34 3 -23 8
-27 40 -30 43 -4 84 15 139 65 21 19 39 30 39 23 0 -16 -56 -66 -100 -90 -77
-40 -165 -38 -206 7 l-23 25 -31 -25 c-56 -48 -140 -46 -155 3 -7 22 -7 22
-35 -5 -40 -38 -109 -46 -139 -16 -28 28 -23 47 46 193 l56 116 56 10 c75 13
77 13 83 7z"/>
<path d="M5525 12055 l0 -85 55 0 c76 0 99 8 115 41 22 42 18 68 -16 100 -27
25 -39 29 -93 29 l-61 0 0 -85z"/>
<path d="M6753 12039 c-23 -48 -63 -140 -63 -144 0 -1 36 -3 80 -4 50 -1 80 2
80 9 0 5 -15 43 -33 82 -19 40 -36 80 -39 87 -2 9 -12 -2 -25 -30z"/>
<path d="M8256 12047 c-43 -44 -44 -224 -1 -275 19 -21 73 -32 60 -12 -3 5 0
7 8 4 10 -4 20 8 32 40 29 76 11 231 -29 258 -20 14 -47 8 -70 -15z"/>
<path d="M6771 11135 c-65 -75 -133 -255 -95 -255 32 0 131 176 141 251 7 49
-6 50 -46 4z"/>
<path d="M10586 11139 c-61 -68 -131 -260 -95 -259 35 1 149 218 149 282 0 18
-28 6 -54 -23z"/>
<path d="M4150 11138 c-49 -53 -125 -236 -106 -255 21 -21 95 83 134 190 37
98 25 124 -28 65z"/>
<path d="M30 10581 c0 -21 8 -36 26 -48 132 -93 169 -134 460 -508 12 -16 49
-64 82 -105 32 -41 89 -115 127 -165 38 -49 85 -108 104 -130 80 -90 146 -168
153 -180 5 -7 68 -50 140 -96 73 -45 162 -101 198 -124 36 -23 144 -91 240
-150 96 -60 184 -115 195 -124 18 -14 18 -14 -1 9 -12 14 -24 37 -28 52 -4 20
-29 40 -98 84 -51 31 -122 76 -158 99 -36 23 -146 92 -245 153 -164 102 -187
120 -259 202 -54 62 -86 90 -101 90 -45 0 -83 54 -76 108 2 10 -69 109 -114
158 -5 6 -80 103 -167 215 -86 112 -178 231 -205 264 -47 58 -179 171 -242
208 l-31 18 0 -30z"/>
<path d="M20 10473 c0 -20 17 -42 71 -92 39 -36 129 -142 200 -236 174 -230
205 -270 322 -415 142 -177 281 -342 303 -361 11 -9 183 -119 384 -246 655
-413 705 -445 724 -463 18 -18 18 -19 0 -55 -12 -25 -35 -46 -64 -62 -58 -31
-90 -67 -90 -101 0 -14 19 -86 42 -159 41 -130 43 -134 81 -152 34 -17 38 -17
32 -3 -23 59 -86 263 -91 293 -6 35 -5 37 48 67 64 37 82 55 102 102 17 43 11
83 -18 110 -11 11 -169 114 -351 229 -324 206 -473 301 -678 432 -83 54 -116
82 -168 146 -262 325 -447 558 -544 687 -106 141 -155 196 -248 274 -46 39
-57 40 -57 5z"/>
<path d="M8395 9740 c-93 -24 -153 -51 -224 -99 -139 -95 -253 -276 -275 -438
l-5 -42 47 14 c79 24 213 35 306 25 47 -5 147 -24 223 -44 185 -46 257 -56
420 -56 119 0 286 18 312 34 21 14 -20 180 -70 277 -23 45 -26 45 -117 2 -31
-14 -49 -29 -46 -35 4 -7 2 -8 -4 -4 -6 4 -29 -2 -51 -14 -57 -28 -93 -25
-180 16 -119 57 -148 64 -266 70 -223 10 -256 20 -145 42 123 24 203 34 238
27 20 -3 90 -31 154 -61 l117 -55 108 49 c59 27 114 51 121 53 17 5 -56 82
-127 134 -155 113 -358 153 -536 105z m396 -510 l60 -29 55 25 c58 26 184 45
184 27 0 -6 -28 -18 -62 -28 -35 -9 -87 -28 -117 -42 l-53 -26 -67 28 c-44 18
-92 29 -144 33 -84 5 -89 14 -17 30 74 16 98 13 161 -18z"/>
<path d="M10585 9540 c-111 -25 -384 -80 -417 -85 -15 -2 -31 -6 -36 -9 -4 -2
-26 -7 -47 -10 -22 -3 -69 -12 -105 -20 -36 -9 -85 -21 -110 -27 -25 -6 -58
-12 -75 -14 -16 -2 -52 -10 -80 -18 -64 -17 -66 -30 -21 -138 73 -175 88 -193
149 -182 19 4 27 1 27 -9 0 -9 25 -23 63 -36 81 -29 92 -29 72 2 -15 22 -14
24 4 29 10 2 96 -2 190 -9 93 -8 190 -12 215 -11 26 1 46 0 46 -3 0 -3 10 -5
23 -6 12 0 87 -4 166 -9 118 -6 145 -5 153 6 8 11 9 10 4 -3 -6 -21 23 -25 42
-6 14 14 16 42 2 33 -5 -3 -7 0 -4 8 5 15 -50 240 -66 269 -6 10 -10 28 -10
40 -1 39 -26 119 -34 111 -5 -4 -6 1 -2 12 7 25 -9 86 -26 97 -17 10 -27 9
-123 -12z m-442 -162 c20 -15 22 -15 34 0 10 13 14 14 21 4 6 -9 16 -10 33 -3
15 5 31 5 41 0 10 -6 19 -6 23 0 9 15 35 1 35 -18 1 -13 3 -13 16 4 9 12 28
20 50 22 32 2 37 -1 47 -30 l11 -32 6 29 c7 40 26 43 44 9 l14 -28 10 26 c9
24 49 45 61 34 2 -3 -1 -5 -7 -5 -7 0 -12 -7 -12 -15 0 -14 3 -14 23 -1 23 16
67 11 67 -6 0 -5 7 -2 16 6 22 23 54 21 54 -4 0 -14 -5 -18 -17 -13 -12 4 -11
0 5 -13 38 -31 5 -77 -39 -54 -12 7 -26 7 -36 2 -10 -5 -24 -7 -31 -5 -14 5
-42 -14 -42 -29 0 -6 6 -5 14 2 8 6 23 10 33 8 10 -1 24 1 31 5 7 5 12 3 12
-3 0 -8 9 -10 25 -6 21 5 27 1 40 -30 16 -40 11 -62 -10 -44 -8 7 -20 8 -27 4
-15 -10 -48 -13 -48 -5 0 3 -19 5 -42 4 -27 -1 -50 5 -61 15 -16 15 -17 15
-12 -1 6 -14 -3 -16 -62 -19 -51 -2 -71 1 -81 12 -11 13 -12 13 -10 0 2 -11
-6 -14 -32 -11 -42 4 -50 8 -46 24 1 7 1 9 -1 5 -3 -5 -11 -8 -18 -8 -7 0 -15
-6 -18 -14 -7 -16 -47 -10 -47 7 0 7 -4 7 -12 -1 -17 -17 -66 -15 -84 3 -10 9
-11 15 -4 15 7 0 9 8 5 19 -3 11 -1 22 5 26 18 11 72 8 80 -5 4 -7 10 -8 13
-3 3 5 47 10 97 11 86 2 91 1 100 -20 l9 -23 0 23 c1 23 21 32 21 10 0 -10 2
-10 8 0 13 19 72 11 88 -12 16 -23 19 -14 4 14 -8 15 -6 17 8 13 21 -5 49 22
32 32 -5 3 -10 1 -10 -4 0 -6 -7 -11 -15 -11 -8 0 -15 5 -15 11 0 8 -4 8 -14
0 -11 -10 -17 -8 -26 6 -10 16 -11 16 -6 1 4 -15 -1 -18 -25 -18 -17 0 -39 4
-49 10 -14 7 -20 6 -24 -7 -5 -11 -10 -13 -17 -6 -7 7 -6 22 5 47 8 20 11 36
7 36 -4 0 -13 -18 -20 -40 -13 -46 -44 -55 -56 -17 -5 17 -8 18 -12 6 -6 -24
-44 -38 -72 -27 -15 5 -28 4 -36 -2 -10 -8 -17 -5 -28 10 l-15 22 -12 -22
c-10 -18 -14 -20 -21 -9 -5 9 -9 10 -9 2 0 -14 -78 -7 -97 9 -9 7 -13 7 -13
-1 0 -6 -7 -11 -15 -11 -11 0 -15 12 -15 44 0 51 8 59 45 50 21 -5 26 -12 25
-33 -3 -44 3 -48 9 -6 6 37 9 40 37 40 25 0 30 3 27 20 -2 12 -1 14 3 5 4 -8
16 -22 27 -32z"/>
<path d="M1822 8940 l-43 -5 106 -65 c58 -36 143 -87 187 -115 103 -63 110
-80 68 -169 -24 -49 -40 -68 -82 -96 -77 -51 -77 -56 32 -410 51 -162 95 -311
100 -330 14 -54 161 -550 239 -805 39 -126 71 -237 71 -245 1 -8 9 6 19 32
l19 47 -70 233 c-56 184 -76 239 -99 263 -33 36 -45 76 -29 104 9 18 3 48 -33
169 -24 81 -57 190 -72 242 -23 80 -33 101 -66 131 -41 38 -51 78 -28 121 9
17 1 54 -42 196 l-53 174 21 17 c12 9 38 29 58 45 39 30 95 137 95 181 0 63
-27 93 -149 165 -47 28 -113 68 -146 88 -51 32 -66 36 -103 32z"/>
<path d="M2028 8001 c-15 -28 -15 -33 3 -91 27 -88 27 -90 -27 -90 l-46 0 29
-30 c45 -48 98 -36 118 28 6 21 -43 212 -55 212 -3 0 -12 -13 -22 -29z"/>
<path d="M1729 7814 c-7 -9 -16 -59 -20 -117 -8 -116 -38 -210 -77 -242 -51
-42 -72 -69 -72 -92 0 -40 40 -69 119 -87 l73 -17 127 33 c124 31 129 32 155
15 18 -12 26 -26 26 -46 0 -22 5 -30 24 -33 31 -6 37 8 26 57 -11 47 -34 72
-79 86 -30 9 -55 6 -158 -21 -100 -25 -130 -29 -160 -21 -21 5 -50 12 -65 15
-37 9 -35 26 7 53 60 40 104 151 114 293 l6 85 31 -3 c23 -2 39 4 63 27 l33
31 -80 0 c-60 0 -83 -4 -93 -16z"/>
<path d="M2047 7043 c-4 -3 -7 -43 -8 -87 0 -45 -4 -121 -8 -170 -5 -68 -3
-90 7 -93 7 -3 19 -17 26 -31 12 -23 13 -21 19 44 4 38 10 131 13 207 l7 137
-25 0 c-14 0 -28 -3 -31 -7z"/>
<path d="M2510 6678 c0 -2 11 -37 24 -78 13 -41 42 -136 64 -210 88 -296 101
-334 101 -309 1 14 7 33 14 44 12 15 11 29 -9 94 -12 42 -43 148 -69 236 -26
88 -52 162 -58 164 -7 2 -24 18 -39 34 -16 16 -28 27 -28 25z"/>
<path d="M2060 6561 c-5 -11 -18 -22 -28 -26 -17 -5 -20 -23 -28 -150 -5 -80
-9 -145 -9 -146 0 0 44 -6 98 -13 83 -10 100 -10 110 2 6 8 23 19 37 25 21 9
11 12 -73 22 -54 7 -100 15 -104 18 -3 4 -2 70 3 147 5 77 8 140 7 140 -1 0
-7 -9 -13 -19z"/>
<path d="M2300 6249 c14 -6 34 -21 45 -34 17 -19 35 -25 113 -33 51 -5 95 -12
99 -15 3 -3 25 -74 49 -158 24 -83 45 -152 46 -153 2 -1 18 -9 37 -19 22 -12
32 -13 28 -5 -2 7 -25 87 -51 177 -26 91 -52 173 -57 183 -16 29 -41 37 -175
53 -148 17 -169 18 -134 4z"/>
<path d="M2700 6047 c0 -3 27 -97 60 -209 34 -112 71 -239 84 -283 14 -44 52
-180 87 -302 l63 -222 19 31 19 32 -102 361 c-138 483 -158 545 -175 545 -7 0
-23 12 -34 26 -12 15 -21 24 -21 21z"/>
<path d="M10995 5652 l-439 -177 -7 -33 c-5 -23 -3 -32 5 -28 58 26 362 150
481 196 83 33 206 82 273 109 68 28 132 51 141 51 11 0 35 -30 65 -80 27 -44
52 -80 55 -80 3 0 14 6 23 13 15 12 12 21 -33 97 -52 91 -71 110 -103 110 -12
-1 -219 -80 -461 -178z"/>
<path d="M2730 5738 c0 -9 -7 -24 -16 -32 -14 -15 -10 -35 47 -236 39 -139 67
-220 75 -220 7 0 25 -12 40 -27 15 -16 24 -21 21 -12 -3 9 -37 128 -77 265
-70 242 -89 299 -90 262z"/>
<path d="M11260 5671 c-74 -32 -214 -91 -310 -131 -96 -40 -274 -114 -395
-165 -121 -51 -263 -109 -315 -130 -52 -20 -138 -58 -190 -83 l-95 -47 -35
-69 c-34 -67 -35 -72 -34 -183 0 -94 -2 -113 -15 -113 -8 0 -46 22 -85 49
-113 77 -192 113 -264 119 -54 4 -75 0 -152 -28 l-89 -34 40 -17 c38 -17 41
-17 82 1 95 44 190 19 353 -91 58 -38 87 -52 115 -53 66 -1 74 15 74 157 0
126 9 159 54 211 20 23 143 80 325 152 78 31 245 100 371 154 127 54 280 118
340 143 61 24 169 70 241 101 72 31 133 56 136 56 3 0 20 -31 37 -70 18 -38
36 -70 40 -70 4 0 16 6 26 14 19 14 19 16 -10 76 -34 72 -67 110 -92 109 -10
0 -79 -26 -153 -58z"/>
<path d="M10200 5319 c-102 -43 -198 -85 -215 -93 -16 -8 -64 -28 -105 -46
-41 -17 -110 -52 -153 -77 -72 -42 -82 -45 -130 -40 -62 6 -92 -4 -133 -44
-23 -22 -66 -42 -160 -72 -126 -41 -129 -43 -132 -72 l-3 -31 132 43 c135 43
152 52 204 97 26 23 38 26 97 25 58 -1 74 3 125 32 99 56 199 102 462 214 140
60 248 111 240 113 -8 3 -21 10 -29 18 -13 11 -45 0 -200 -67z"/>
<path d="M3031 4901 c11 -36 42 -147 70 -246 105 -375 101 -367 172 -425 69
-58 158 -120 198 -137 l26 -11 -11 33 c-9 25 -34 49 -92 92 -45 32 -93 67
-108 79 -21 15 -34 41 -52 105 -14 46 -32 89 -42 96 -54 38 -69 78 -45 128 14
29 12 39 -22 155 -20 69 -39 132 -42 140 -3 8 -20 25 -38 36 l-33 22 19 -67z"/>
<path d="M2980 4874 c0 -11 -7 -29 -15 -41 -13 -19 -10 -36 32 -185 46 -163
47 -164 80 -175 18 -5 33 -9 33 -8 0 10 -121 419 -125 423 -3 3 -5 -3 -5 -14z"/>
<path d="M9155 4804 c-33 -13 -80 -33 -105 -44 -202 -87 -713 -295 -763 -311
-102 -32 -162 -44 -647 -124 -256 -42 -476 -79 -490 -82 l-25 -6 30 -8 c16 -5
34 -15 40 -22 8 -11 28 -10 112 3 86 14 107 21 127 43 34 37 71 44 112 22 25
-13 45 -16 81 -11 26 3 49 10 51 15 16 49 75 67 130 40 l40 -20 173 30 c196
35 309 66 309 85 0 31 40 50 108 52 62 1 93 13 409 145 334 140 343 145 362
182 10 20 16 37 12 37 -3 -1 -33 -12 -66 -26z"/>
<path d="M8165 4516 c-27 -8 -107 -26 -177 -41 -112 -25 -129 -31 -147 -56
-18 -24 -19 -29 -6 -29 20 0 377 77 426 92 l38 11 -24 18 c-27 22 -42 22 -110
5z"/>
<path d="M7567 4394 c-65 -12 -119 -23 -120 -25 -2 -2 -11 -17 -20 -32 -18
-27 -18 -28 5 -22 13 3 90 16 172 30 136 23 185 35 144 35 -8 0 -26 8 -39 18
-23 18 -28 17 -142 -4z"/>
<path d="M3116 4333 c-17 -23 -18 -31 -8 -70 7 -24 12 -76 12 -116 0 -39 3
-82 6 -93 8 -30 45 -44 117 -44 40 0 105 -13 180 -34 117 -33 118 -33 153 -16
19 10 31 21 27 23 -5 3 -74 24 -154 46 -98 28 -166 41 -207 41 l-62 0 0 76 c0
48 -8 101 -21 145 -12 38 -22 69 -22 69 -1 0 -11 -12 -21 -27z"/>
<path d="M6535 4224 c-38 -7 -101 -17 -139 -23 -58 -8 -73 -15 -92 -38 -12
-15 -19 -29 -15 -31 5 -1 91 11 192 28 101 16 188 30 194 30 5 0 -5 8 -22 16
-18 9 -33 20 -33 25 0 5 -3 8 -7 8 -5 -1 -39 -8 -78 -15z"/>
<path d="M6640 4161 c-52 -10 -150 -26 -217 -36 -68 -10 -123 -22 -123 -27 0
-4 5 -8 12 -8 6 0 20 -8 30 -17 18 -16 29 -15 196 11 128 20 180 32 187 43 6
9 18 25 28 35 16 17 16 18 0 17 -10 0 -61 -9 -113 -18z"/>
<path d="M6070 4149 c-165 -26 -190 -32 -190 -41 0 -6 -10 -19 -22 -29 -20
-18 -20 -19 -2 -19 10 0 92 12 182 27 155 26 161 28 137 42 -14 9 -25 19 -25
23 0 9 -5 9 -80 -3z"/>
<path d="M5635 4075 c-33 -6 -93 -18 -133 -25 -59 -11 -79 -19 -108 -48 l-35
-34 28 6 c31 7 296 54 355 63 l37 6 -35 23 c-19 13 -38 24 -42 23 -4 -1 -34
-7 -67 -14z"/>
<path d="M3615 4070 c-3 -5 -15 -10 -26 -10 -57 0 38 -47 174 -86 76 -22 203
-73 260 -104 11 -7 17 -7 17 0 0 5 -4 10 -9 10 -5 0 -13 13 -19 28 -7 21 -26
36 -76 60 -57 27 -191 73 -264 89 -12 3 -25 9 -28 14 -7 12 -21 11 -29 -1z"/>
<path d="M5807 4026 c-141 -24 -170 -40 -170 -95 0 -35 25 -73 106 -160 l57
-62 0 41 c0 35 -8 50 -56 106 -30 36 -53 71 -51 77 3 11 43 21 159 41 22 4 39
14 42 24 3 9 18 25 33 34 33 21 39 21 -120 -6z"/>
<path d="M5052 3970 c-140 -26 -155 -31 -181 -59 -23 -24 -37 -31 -68 -31 -21
0 -46 6 -55 14 -14 11 -34 9 -120 -12 -83 -19 -133 -24 -253 -26 -82 0 -168 1
-190 3 -22 2 -56 -1 -75 -6 l-34 -9 29 -11 c86 -33 116 -38 235 -37 132 1 233
14 340 44 36 10 182 39 325 65 143 25 276 49 295 53 l35 8 -37 8 c-21 4 -38
11 -38 16 0 15 -41 11 -208 -20z"/>
<path d="M3690 3943 c11 -14 20 -31 21 -37 0 -6 54 -37 120 -69 100 -47 124
-55 141 -46 11 6 33 9 49 7 16 -3 27 -3 25 0 -11 10 -278 136 -324 153 l-53
18 21 -26z"/>
<path d="M4078 3765 c12 -15 22 -35 22 -45 0 -17 115 -76 195 -100 58 -18 543
-266 588 -302 43 -33 42 -33 51 3 5 22 0 31 -27 51 -44 33 -514 275 -580 297
-28 11 -97 41 -152 67 -55 27 -104 51 -109 53 -6 2 0 -9 12 -24z"/>
<path d="M5850 3651 c0 -2 33 -40 74 -85 81 -89 118 -153 135 -234 28 -134 11
-183 -265 -771 -30 -62 -54 -117 -54 -122 0 -4 -4 -10 -9 -13 -11 -7 -608 67
-617 77 -3 3 2 65 10 138 36 310 32 376 -25 501 -18 37 -33 68 -35 68 -2 0
-14 -5 -28 -11 l-25 -12 24 -46 c13 -26 31 -74 40 -106 21 -69 17 -184 -10
-402 -10 -73 -15 -139 -12 -147 14 -37 56 -47 363 -85 182 -23 317 -36 329
-31 31 12 39 25 93 146 27 60 63 138 80 174 197 426 204 446 204 561 0 133
-32 212 -129 324 -62 71 -72 78 -106 79 -20 1 -37 -1 -37 -3z"/>
<path d="M2377 3385 c-36 -19 -68 -56 -62 -73 3 -7 0 -10 -5 -7 -16 10 -12
-82 5 -115 41 -78 156 -93 221 -28 36 36 52 86 40 132 -9 35 -56 88 -73 82 -8
-3 -12 -2 -9 3 15 24 -75 28 -117 6z m100 -26 c15 -6 30 -10 33 -9 2 1 8 -8
12 -20 5 -14 14 -20 23 -16 13 4 14 2 5 -14 -8 -14 -7 -26 1 -41 8 -15 8 -19
0 -15 -7 4 -11 -1 -11 -13 0 -11 -5 -23 -11 -26 -6 -4 -8 -14 -5 -22 3 -8 1
-11 -5 -8 -5 4 -15 2 -22 -3 -24 -19 -67 -22 -101 -8 -57 24 -78 86 -51 150 7
15 5 17 -6 11 -8 -4 -11 -5 -7 -1 3 4 10 8 15 8 4 0 19 9 32 19 27 21 57 24
98 8z"/>
<path d="M2382 3317 c-28 -29 -28 -70 -1 -108 20 -29 42 -35 87 -23 17 5 21
11 17 28 -4 14 -3 17 3 8 7 -10 11 -10 22 3 17 21 8 28 -21 17 -13 -5 -41 -12
-61 -16 -38 -7 -38 -7 -38 28 0 38 18 59 26 29 4 -14 15 -18 53 -18 54 0 60
12 25 50 -31 33 -82 34 -112 2z"/>
<path d="M1293 3199 c-48 -18 -58 -86 -17 -118 33 -26 58 -27 84 -1 51 51 -1
144 -67 119z"/>
<path d="M1886 3178 c-34 -48 -14 -103 40 -114 25 -5 37 -1 53 15 27 27 28 82
3 104 -27 25 -78 22 -96 -5z"/>
<path d="M10390 2600 l0 -159 33 -4 c27 -3 25 -4 -13 -6 -38 -3 -41 -4 -20
-11 14 -4 19 -8 13 -9 -7 -1 -14 -13 -14 -28 l-1 -28 -8 30 c-5 20 -8 -3 -9
-71 -1 -97 0 -102 22 -108 12 -3 93 -6 180 -6 143 0 157 2 157 18 0 14 -10 17
-66 18 -36 1 -71 7 -77 13 -14 14 80 16 102 2 9 -6 21 -5 31 1 23 15 50 3 50
-22 0 -22 -15 -27 -23 -7 -3 7 -6 5 -6 -5 -1 -10 6 -18 14 -18 8 0 15 -3 15
-7 0 -5 -87 -8 -194 -8 -107 0 -189 3 -183 7 8 5 6 8 -5 8 -10 0 -18 -4 -18
-10 0 -6 -57 -10 -150 -10 l-150 0 -2 113 c-1 96 -2 103 -8 52 -4 -33 -7 -53
-8 -44 -2 17 -35 59 -47 59 -4 0 -20 9 -36 21 -23 16 -48 21 -121 24 -62 3
-83 1 -63 -4 25 -7 26 -9 8 -10 -13 0 -23 -5 -23 -11 0 -5 -5 -10 -11 -10 -6
0 -9 7 -5 15 7 19 -8 20 -23 1 -9 -11 -9 -15 0 -18 9 -3 7 -12 -6 -31 -20 -32
-32 -29 -15 3 12 22 5 43 -8 25 -4 -6 -14 -11 -22 -13 -19 -4 39 45 63 53 9 4
17 10 17 15 0 13 93 30 160 30 l60 0 0 145 0 145 -146 0 c-121 0 -151 -3 -176
-17 -33 -20 -94 -132 -103 -191 -3 -20 -8 -52 -11 -69 -3 -18 -9 -33 -14 -33
-6 0 -9 3 -8 8 0 4 -2 15 -7 25 -11 27 12 144 41 206 14 32 19 51 11 49 -17
-6 -54 -121 -63 -195 -4 -37 -1 -90 6 -130 15 -85 50 -194 60 -188 4 3 7 -3 6
-13 -1 -14 10 -17 72 -20 l72 -3 1 28 c1 15 1 41 0 56 -5 103 148 171 242 107
46 -31 57 -57 57 -130 l0 -60 388 0 387 0 -1 61 c-1 58 2 64 35 99 41 44 101
64 147 51 90 -26 121 -67 116 -158 -3 -51 -2 -53 22 -53 14 0 26 5 26 11 0 5
-4 8 -8 5 -4 -3 -8 13 -9 35 -1 27 3 39 13 39 8 0 14 -5 14 -11 0 -5 -4 -7
-10 -4 -5 3 -10 1 -10 -4 0 -6 4 -11 9 -11 5 0 9 -6 8 -12 -1 -49 -4 -48 126
-47 124 1 190 9 172 21 -6 3 -30 3 -55 -2 -24 -4 -85 -7 -135 -7 l-90 2 -7
273 c-4 151 -9 280 -12 288 -4 11 -70 14 -381 14 l-375 0 0 -160z m750 -186
c16 -41 13 -121 -5 -128 -8 -3 -15 -1 -15 4 0 6 5 10 10 10 6 0 10 23 10 51 0
36 -4 49 -12 46 -15 -4 -17 -56 -4 -74 17 -26 -5 -12 -43 26 -25 25 -35 42
-28 45 7 4 0 4 -15 1 -15 -3 -29 -1 -32 4 -3 5 -27 6 -52 3 -41 -4 -46 -3 -41
12 4 9 2 16 -3 16 -6 0 -10 -7 -10 -15 0 -8 -4 -15 -10 -15 -5 0 -10 7 -10 15
0 12 -14 15 -70 15 -69 0 -82 -8 -62 -35 9 -12 32 -18 31 -7 -3 18 2 32 11 32
5 0 3 -19 -6 -42 -8 -22 -12 -43 -10 -45 5 -5 30 37 31 51 0 5 6 11 13 14 8 2
11 -4 8 -20 -2 -12 -9 -22 -15 -21 -6 2 -11 -3 -11 -10 0 -6 -7 -21 -16 -32
-12 -16 -16 -17 -23 -6 -7 11 -10 9 -16 -8 -6 -20 -11 -21 -163 -19 l-157 2
148 3 c121 3 149 6 154 19 13 34 -62 58 -91 29 -14 -14 -16 -13 -22 12 -10 47
-13 53 -26 52 -10 0 -10 -2 0 -6 6 -2 12 -20 12 -38 0 -35 19 -51 40 -32 10 9
11 9 6 0 -9 -16 -1 -16 24 -3 20 11 50 4 50 -11 0 -13 -297 -12 -305 1 -10 15
-23 12 -28 -7 -3 -10 -5 -2 -6 17 0 25 2 31 8 21 7 -11 36 -16 105 -18 l96 -4
-1 28 -1 28 -8 -25 c-7 -22 -8 -21 -9 13 -1 23 -7 40 -16 43 -8 4 -12 10 -9
15 3 5 -12 8 -33 8 -38 -1 -38 -1 -8 -9 24 -6 20 -8 -25 -7 -30 0 -45 2 -32 4
12 2 20 9 17 14 -4 5 126 9 330 9 l335 0 10 -26z"/>
<path d="M11357 2753 c-3 -4 -7 -77 -8 -162 l-4 -154 90 1 c60 1 83 -2 70 -8
-11 -5 -14 -9 -7 -9 6 -1 12 -5 12 -9 0 -4 -12 -7 -27 -6 -46 4 -49 5 -28 14
14 6 4 9 -37 9 -35 1 -58 -3 -58 -10 0 -5 -4 -7 -10 -4 -6 4 -10 -23 -10 -73
0 -88 3 -92 68 -92 24 0 32 -3 24 -9 -17 -10 34 -22 69 -15 20 4 21 3 5 -4
-19 -8 -18 -9 5 -15 35 -10 57 -9 41 1 -21 14 -3 44 22 37 21 -6 21 -6 2 9
-11 9 -23 16 -28 16 -4 0 -8 5 -8 11 0 8 4 8 13 0 8 -6 22 -12 33 -14 53 -8
59 -37 7 -37 -25 0 -34 -3 -27 -10 6 -6 24 -7 41 -4 l30 6 -1 113 c0 63 -5
108 -9 101 -5 -6 -6 1 -3 17 7 32 -2 77 -16 77 -5 0 -7 -4 -4 -9 10 -16 -5
-41 -25 -41 -15 0 -19 -7 -19 -32 0 -23 -3 -29 -11 -21 -17 17 -6 57 16 63 21
5 33 30 15 30 -5 0 -10 -4 -10 -10 0 -19 -26 -10 -27 10 -2 17 3 19 25 15 27
-5 26 -5 -3 9 -16 9 -35 15 -42 16 -9 0 -13 30 -15 98 l-3 97 -72 3 c-39 2
-73 -1 -76 -5z"/>
<path d="M10090 2440 l0 -240 130 0 130 0 0 240 0 240 -130 0 -130 0 0 -240z"/>
<path d="M11180 2440 l0 -240 70 0 70 0 0 240 0 240 -70 0 -70 0 0 -240z"/>
<path d="M9824 2341 c-29 -13 -74 -69 -75 -94 -5 -103 39 -157 128 -157 55 0
98 30 118 83 21 55 10 99 -34 141 -32 31 -98 43 -137 27z m103 -73 c40 -37 27
-96 -26 -117 -24 -10 -34 -10 -59 3 -47 24 -55 66 -21 110 26 33 73 35 106 4z"/>
<path d="M10873 2330 c-63 -38 -81 -120 -40 -181 27 -41 60 -59 107 -59 47 0
80 18 107 59 77 113 -57 253 -174 181z m117 -60 c30 -30 27 -83 -6 -109 -15
-12 -34 -21 -44 -21 -10 0 -29 9 -44 21 -35 27 -37 90 -4 113 31 22 74 20 98
-4z"/>
<path d="M4970 1962 c-40 -42 -86 -79 -180 -142 -36 -24 -66 -47 -68 -52 -2
-4 -7 -8 -12 -8 -6 0 -196 -124 -225 -147 -5 -5 -32 -23 -60 -41 -77 -49 -76
-49 -137 -92 -31 -22 -59 -40 -62 -40 -4 0 -80 -48 -170 -107 -90 -60 -193
-126 -228 -148 -34 -21 -69 -44 -76 -50 -35 -27 -183 -166 -337 -317 -233
-229 -291 -277 -391 -328 -51 -26 -70 -30 -139 -30 -72 0 -219 25 -285 49 -14
5 -43 14 -65 20 -22 6 -101 28 -175 50 -74 22 -175 49 -225 61 -49 11 -106 25
-125 30 -70 19 -227 40 -335 46 -87 5 -150 1 -305 -20 -107 -14 -220 -31 -250
-36 -30 -6 -84 -15 -120 -20 -36 -5 -112 -18 -170 -29 -58 -10 -170 -31 -250
-45 -160 -29 -203 -36 -365 -66 -60 -12 -129 -21 -153 -22 l-42 -1 0 -223 0
-224 6025 0 6025 0 0 985 0 985 -3532 -1 -3533 0 -35 -37z m184 -374 c81 -16
88 -30 88 -173 0 -135 -10 -171 -53 -180 -18 -4 -36 -2 -44 5 -13 11 -15 -17
-15 -213 0 -195 2 -227 16 -235 8 -5 18 -26 21 -48 7 -56 -24 -94 -78 -94 -75
0 -115 75 -70 132 17 22 20 45 23 245 2 171 0 219 -9 211 -18 -15 -55 -6 -67
17 -6 11 -14 22 -17 25 -12 10 -19 119 -13 194 6 67 10 78 33 93 49 32 102 38
185 21z m455 -54 c48 -10 81 -46 81 -90 0 -21 -7 -46 -17 -56 -15 -16 -15 -20
0 -36 9 -9 18 -39 22 -66 3 -27 7 -52 10 -56 3 -4 -9 -10 -26 -12 -40 -6 -59
13 -59 61 0 46 -14 61 -57 61 l-33 0 0 -63 c0 -60 -1 -64 -22 -61 -13 1 -29 3
-35 3 -10 1 -13 39 -13 154 0 85 3 157 7 160 8 9 100 9 142 1z m341 -25 c0
-29 0 -29 -64 -29 -53 0 -65 -3 -68 -17 -9 -43 2 -53 59 -53 53 0 54 0 51 -27
-3 -26 -7 -28 -55 -31 l-53 -3 0 -40 0 -39 65 0 c63 0 65 -1 65 -25 l0 -25
-105 0 -105 0 0 153 c0 85 3 157 7 161 4 4 51 6 105 5 l98 -1 0 -29z m168 -71
l61 -103 3 100 3 100 33 0 c17 0 32 -3 32 -7 0 -5 0 -77 0 -161 l0 -153 -35 1
c-19 1 -36 3 -38 6 -2 2 -22 36 -45 75 -73 123 -73 123 -70 16 2 -56 -1 -93
-7 -94 -5 0 -22 -2 -37 -2 l-28 -2 0 163 0 163 34 0 c32 0 36 -5 94 -102z
m370 88 c51 -27 66 -55 70 -131 7 -120 -41 -185 -133 -185 -89 0 -135 56 -135
162 0 43 6 80 15 99 32 61 121 87 183 55z m182 -58 c12 -40 26 -90 32 -110 6
-21 14 -38 18 -38 4 0 20 48 37 108 29 106 30 107 61 110 20 2 34 -2 37 -10 2
-7 -19 -80 -49 -163 l-53 -150 -32 0 c-18 -1 -34 3 -37 7 -15 24 -103 295 -99
305 2 7 18 13 34 13 29 0 31 -3 51 -72z m370 52 c6 -11 31 -79 54 -150 24 -71
47 -133 50 -138 3 -6 -10 -12 -30 -14 -30 -4 -37 0 -49 23 -8 14 -11 29 -8 33
4 3 -19 6 -50 6 -53 0 -56 -1 -62 -30 -4 -16 -10 -30 -13 -31 -36 -4 -64 -4
-67 1 -3 5 53 178 100 308 7 20 63 15 75 -8z m251 -95 c21 -63 39 -104 43 -95
3 8 21 58 40 110 l34 95 43 0 44 0 3 -157 c2 -103 -1 -158 -8 -159 -5 -1 -22
-1 -37 -2 l-27 -1 3 82 c1 47 -1 82 -7 82 -8 0 -37 -69 -56 -136 -4 -13 -17
-24 -32 -27 -23 -4 -28 1 -45 40 -10 25 -19 50 -20 56 0 7 -9 30 -19 52 l-18
40 0 -85 c0 -47 -1 -89 -1 -95 -1 -5 -16 -10 -33 -9 l-33 1 -3 149 c-1 81 0
154 3 162 3 9 18 12 47 10 l41 -3 38 -110z m449 100 c16 -8 38 -28 50 -45 19
-27 22 -41 19 -115 -4 -80 -6 -87 -36 -116 -26 -26 -41 -33 -85 -36 -97 -7
-148 49 -148 162 0 31 6 71 14 90 28 65 119 95 186 60z m290 0 c31 -16 50 -43
50 -69 0 -11 -10 -16 -34 -16 -26 0 -35 5 -39 21 -5 17 -12 20 -44 17 -33 -3
-38 -6 -38 -27 0 -21 9 -28 59 -48 32 -12 67 -30 77 -39 26 -24 33 -68 15
-102 -20 -40 -64 -56 -129 -49 -41 5 -58 13 -79 37 -39 43 -37 70 5 70 24 0
35 -6 42 -22 13 -30 82 -39 92 -12 10 26 -8 44 -61 65 -68 26 -96 54 -96 99 0
36 24 70 60 83 30 11 92 7 120 -8z m435 -15 c0 -23 -4 -25 -47 -28 l-48 -3 0
-130 c0 -96 -3 -129 -12 -131 -44 -5 -43 -9 -48 132 l-5 135 -43 -3 c-44 -4
-61 11 -48 43 5 13 26 15 128 13 l123 -3 0 -25z m93 -95 c2 -93 6 -123 19
-137 20 -22 61 -23 88 -2 18 13 20 28 22 137 l2 122 28 0 28 0 3 -117 c2 -91
-1 -125 -13 -148 -30 -57 -112 -77 -182 -43 -52 24 -64 63 -62 191 1 59 3 110
5 114 3 4 17 6 32 5 l27 -2 3 -120z m577 100 c0 -18 -7 -20 -72 -20 -39 0 -74
-2 -76 -5 -3 -3 -7 -23 -9 -45 l-3 -40 63 -3 c53 -3 63 -6 60 -20 -3 -14 -17
-18 -71 -20 -65 -3 -67 -4 -67 -30 0 -15 -3 -37 -6 -49 -6 -22 -4 -23 70 -23
69 0 76 -2 76 -20 0 -11 -4 -20 -10 -20 -5 -1 -48 -1 -95 -1 -47 0 -89 0 -94
1 -8 0 32 291 44 310 4 7 40 10 98 8 84 -3 92 -5 92 -23z m113 -36 l27 -61 48
61 c44 57 77 76 91 52 4 -5 -19 -39 -49 -76 -30 -37 -55 -74 -55 -82 0 -7 16
-45 35 -83 19 -39 31 -71 25 -71 -41 -5 -47 -1 -76 55 l-31 58 -39 -55 c-40
-57 -56 -68 -87 -58 -14 5 -7 18 43 79 33 41 60 76 60 78 0 3 -16 36 -35 75
-37 72 -38 89 -4 89 15 0 27 -16 47 -61z m375 50 c52 -14 74 -62 54 -111 -24
-56 -51 -72 -127 -76 l-68 -4 -6 -58 c-8 -66 -10 -70 -38 -62 -18 4 -19 10
-13 61 7 61 34 229 40 249 5 15 104 16 158 1z m319 5 c3 -3 4 -14 1 -25 -5
-17 -14 -19 -75 -18 -38 1 -71 -1 -74 -4 -3 -3 -8 -24 -11 -46 l-6 -41 62 0
c54 0 61 -2 61 -20 0 -18 -7 -20 -64 -20 l-63 0 -10 -50 -10 -50 74 0 c70 0
74 -1 71 -22 -3 -20 -8 -21 -96 -20 -52 0 -96 3 -99 5 -4 5 33 278 42 305 3 8
32 12 98 12 52 0 96 -3 99 -6z m213 -10 c52 -24 56 -104 6 -140 -11 -9 -13
-15 -4 -25 6 -8 13 -42 15 -76 2 -53 0 -63 -15 -67 -29 -7 -46 19 -40 64 7 53
-8 70 -63 70 l-43 0 -7 -47 c-5 -27 -9 -51 -10 -55 -1 -5 -2 -14 -3 -22 -1 -9
-10 -12 -26 -8 -14 2 -25 6 -25 9 0 10 40 270 45 291 5 20 11 22 71 22 39 0
79 -6 99 -16z m160 6 c5 -8 -13 -159 -33 -275 -8 -42 -37 -60 -48 -30 -6 16
32 290 42 307 7 11 32 10 39 -2z m273 -12 c-3 -21 -9 -23 -73 -26 -76 -3 -85
-10 -85 -59 l0 -33 60 0 c53 0 60 -2 60 -20 0 -18 -7 -20 -65 -20 -36 0 -65
-3 -65 -7 -1 -5 -5 -27 -9 -50 l-8 -43 73 0 c66 0 74 -2 74 -19 0 -18 -9 -20
-100 -23 -88 -3 -100 -1 -100 14 0 20 40 277 45 296 3 8 32 12 100 12 94 0 96
-1 93 -22z m150 -95 l59 -117 17 109 c18 118 21 125 41 125 24 0 26 -17 11
-112 -8 -51 -17 -119 -21 -150 -5 -48 -10 -58 -26 -58 -10 0 -22 -1 -26 -2 -4
-2 -32 49 -63 112 l-57 114 -12 -79 c-6 -44 -14 -94 -17 -112 -5 -33 -22 -46
-43 -33 -10 6 -8 38 9 151 26 175 25 169 50 169 15 0 33 -26 78 -117z m394 94
c16 -12 31 -37 34 -54 6 -30 4 -33 -18 -33 -17 0 -27 8 -35 30 -20 54 -98 48
-128 -10 -9 -17 -19 -62 -22 -100 -6 -65 -5 -68 21 -85 36 -24 86 -10 104 28
9 19 21 27 38 27 22 0 24 -3 19 -22 -4 -13 -20 -36 -36 -53 -25 -26 -35 -29
-90 -30 -56 0 -63 3 -86 30 -22 28 -24 36 -20 106 5 85 22 124 67 163 42 35
112 36 152 3z m140 -42 c-2 -33 -11 -105 -20 -159 -15 -90 -19 -100 -39 -101
-29 -2 -29 0 -3 168 24 157 25 159 47 155 15 -3 18 -13 15 -63z m207 47 c5
-10 21 -78 35 -151 15 -74 29 -137 31 -141 6 -10 -30 -19 -43 -11 -6 3 -14 22
-19 41 -9 35 -10 35 -64 35 -53 0 -54 -1 -72 -38 -19 -40 -42 -56 -59 -39 -7
7 15 57 67 158 87 168 102 187 124 146z m-5909 -512 c0 -22 4 -40 10 -40 5 0
13 18 16 40 6 34 10 40 32 40 23 0 24 -3 19 -39 -4 -35 -2 -40 17 -43 13 -2
22 -11 24 -25 3 -20 -1 -23 -27 -23 -26 0 -31 -4 -31 -25 0 -18 5 -25 20 -25
15 0 20 -7 20 -25 0 -20 -5 -25 -25 -25 -24 0 -29 -7 -37 -65 -2 -13 -12 -21
-31 -23 -27 -3 -27 -3 -21 37 4 27 3 41 -5 41 -6 0 -14 -18 -17 -40 -6 -36
-10 -40 -35 -40 -27 0 -28 2 -23 33 3 17 7 38 10 45 2 7 -6 12 -21 12 -20 0
-25 5 -25 24 0 19 6 25 28 28 19 2 28 9 30 26 3 18 -1 22 -22 22 -14 0 -26 4
-26 9 0 24 14 41 35 41 18 0 25 7 30 33 10 43 13 47 36 47 16 0 19 -7 19 -40z
m370 5 c0 -34 -1 -35 -40 -35 l-40 0 0 -124 0 -124 -40 -4 c-46 -4 -43 -17
-40 145 l2 107 -41 0 c-45 0 -56 10 -47 46 6 24 7 24 126 24 l120 0 0 -35z
m450 20 c34 -18 50 -43 50 -79 0 -23 -4 -26 -35 -26 -29 0 -37 5 -45 25 -5 14
-14 25 -19 25 -5 0 -16 3 -24 6 -8 3 -22 -2 -31 -11 -23 -23 -23 -147 0 -170
24 -23 68 -16 72 13 3 18 10 22 43 22 43 0 49 -13 29 -65 -18 -48 -112 -70
-170 -40 -57 29 -70 59 -70 155 0 94 16 131 64 150 34 14 105 11 136 -5z
m1537 -7 c6 -13 20 -58 33 -101 13 -42 26 -75 29 -72 3 4 20 48 36 98 l30 92
53 3 53 3 -3 -162 -3 -163 -35 0 -35 0 -6 90 c-3 49 -6 83 -7 76 -1 -8 -14
-47 -28 -88 -26 -73 -28 -75 -57 -72 -28 3 -32 9 -58 83 l-28 80 -1 -81 c0
-44 -2 -83 -4 -85 -3 -3 -22 -3 -43 -1 l-38 4 3 159 3 159 48 0 c40 0 49 -4
58 -22z m-415 -30 c-3 -23 1 -28 17 -28 29 0 30 -55 1 -63 -17 -4 -20 -14 -20
-57 0 -43 3 -53 19 -57 12 -3 21 -16 23 -34 5 -34 -15 -44 -66 -35 -42 8 -56
38 -56 121 0 51 -3 65 -15 65 -8 0 -15 -9 -15 -20 0 -17 -7 -20 -40 -20 -28 0
-40 4 -40 14 0 19 -14 28 -34 20 -23 -9 -23 -102 0 -111 10 -4 22 1 29 10 8
11 26 17 49 17 30 0 36 -4 36 -20 0 -27 -40 -67 -75 -76 -48 -12 -102 12 -127
56 -23 40 -23 40 -86 40 -47 0 -63 -3 -59 -12 2 -8 23 -13 53 -13 50 0 64 -8
64 -37 0 -12 -13 -21 -42 -29 -60 -16 -108 -5 -140 31 -24 26 -28 39 -28 89 0
53 3 63 31 90 26 26 38 31 80 31 62 0 99 -31 100 -82 l0 -33 19 41 c10 23 29
49 41 58 43 29 125 17 156 -23 11 -14 12 -12 13 12 0 17 5 27 15 27 9 0 15 9
15 23 0 31 4 34 48 33 34 -1 37 -3 34 -28z m-1392 -43 c18 -9 32 -26 36 -43 3
-15 8 -33 10 -41 2 -8 2 -22 -1 -32 -5 -16 -17 -19 -66 -19 -59 0 -74 -10 -42
-28 10 -6 29 -6 47 -1 42 12 44 12 51 -11 10 -30 -10 -48 -60 -56 -105 -15
-169 55 -145 161 17 75 97 108 170 70z m541 -16 c25 -26 29 -39 29 -85 0 -68
-15 -99 -55 -119 -97 -46 -180 14 -172 124 3 46 9 59 36 83 26 23 40 28 82 28
44 0 55 -4 80 -31z m132 19 c4 -10 7 -10 18 0 20 19 76 15 99 -8 16 -16 20
-34 21 -92 1 -40 2 -86 2 -102 1 -28 -1 -29 -38 -29 l-40 0 -3 78 c-3 81 -13
108 -37 98 -10 -3 -15 -29 -17 -91 -3 -95 3 -87 -68 -83 -19 1 -20 8 -20 114
0 63 3 117 7 120 11 12 71 7 76 -5z m969 -18 c14 -17 18 -40 18 -99 0 -42 3
-86 6 -98 6 -21 3 -23 -34 -23 -22 0 -42 5 -44 11 -2 7 -12 7 -31 -2 -59 -27
-128 25 -113 84 8 34 41 56 91 59 41 4 58 29 23 36 -10 2 -18 -1 -18 -7 0 -6
-20 -11 -45 -11 -47 0 -56 12 -32 42 23 29 52 39 106 35 42 -3 59 -9 73 -27z
m598 15 c33 -17 38 -35 42 -157 l3 -78 -37 0 c-20 0 -40 5 -43 10 -4 7 -13 6
-27 -1 -28 -15 -84 -2 -103 24 -38 54 0 117 71 117 46 0 58 8 44 30 -8 12 -13
13 -30 3 -11 -7 -36 -13 -55 -13 -43 0 -46 20 -10 55 29 30 98 34 145 10z
m242 -5 c14 -11 28 -30 30 -42 4 -22 1 -23 -36 -19 -23 2 -45 10 -49 17 -11
20 -39 18 -35 -3 2 -10 23 -23 53 -32 55 -18 73 -46 61 -95 -9 -37 -65 -60
-120 -51 -75 11 -121 85 -54 85 17 0 39 -7 49 -16 18 -16 49 -13 49 5 0 5 -24
17 -54 25 -44 13 -56 21 -64 44 -12 35 2 76 31 90 38 18 112 14 139 -8z"/>
<path d="M5011 1548 c-25 -13 -46 -65 -38 -96 2 -10 7 0 11 21 l8 37 94 0 c94
0 95 0 105 -27 10 -28 3 -85 -9 -67 -9 13 -164 16 -157 3 4 -5 1 -9 -4 -9 -6
0 -11 5 -11 10 0 6 -12 10 -27 9 -16 0 -23 -2 -18 -5 6 -2 8 -28 7 -59 -3 -35
0 -55 7 -55 6 0 11 -9 11 -19 0 -11 5 -23 12 -27 8 -5 9 0 6 14 -6 21 1 27 30
23 8 -1 21 4 30 11 10 9 13 9 9 1 -6 -9 5 -12 40 -10 40 2 48 -1 47 -15 -1
-10 5 -18 13 -18 10 0 12 6 8 20 -5 14 -2 20 9 20 13 0 16 15 16 88 0 116 -5
132 -41 132 -18 0 -28 5 -26 13 3 17 -101 21 -132 5z"/>
<path d="M6376 1458 c-10 -14 -16 -44 -16 -83 0 -72 18 -105 58 -105 15 0 32
4 38 8 36 24 46 124 17 173 -22 37 -74 41 -97 7z"/>
<path d="M7625 1450 c-18 -34 -20 -109 -4 -143 22 -48 85 -53 108 -8 6 11 11
46 11 78 0 74 -18 103 -65 103 -28 0 -37 -6 -50 -30z"/>
</g>
</svg>
