<?xml version="1.0" standalone="no"?>
<!DOCTYPE svg PUBLIC "-//W3C//DTD SVG 20010904//EN"
 "http://www.w3.org/TR/2001/REC-SVG-20010904/DTD/svg10.dtd">
<svg version="1.0" xmlns="http://www.w3.org/2000/svg"
 width="960.000000pt" height="960.000000pt" viewBox="0 0 960.000000 960.000000"
 preserveAspectRatio="xMidYMid meet">
<metadata>
Created by potrace 1.15, written by Peter Selinger 2001-2017
</metadata>
<g transform="translate(0.000000,960.000000) scale(0.100000,-0.100000)"
fill="#000000" stroke="none">
<path d="M4620 7310 c-431 -28 -830 -134 -1221 -323 -250 -120 -539 -312 -729
-481 -204 -183 -522 -548 -504 -578 4 -6 3 -8 -4 -4 -6 3 -20 -7 -31 -23 -23
-32 -27 -46 -9 -35 7 4 8 3 4 -5 -4 -6 -11 -9 -16 -6 -9 5 -38 -39 -126 -191
-109 -189 -251 -511 -239 -542 2 -7 1 -11 -4 -8 -14 9 -103 -304 -135 -479
-19 -101 -48 -336 -43 -341 2 -2 41 10 88 27 224 83 531 155 819 190 141 18
229 22 455 22 465 1 806 -49 1292 -187 432 -123 742 -194 1084 -251 787 -130
1517 -138 2209 -24 195 32 438 81 529 106 l54 15 -7 94 c-23 325 -112 699
-241 1009 -50 121 -195 403 -227 442 -5 7 -8 18 -6 24 2 7 75 35 161 64 87 28
154 55 150 60 -5 4 -3 5 4 1 23 -13 719 237 708 254 -3 5 0 12 6 16 8 4 9 3 5
-4 -9 -14 3 -15 24 -2 12 7 12 12 3 21 -10 10 -45 10 -169 1 -145 -12 -453
-48 -604 -72 -188 -30 -424 -72 -445 -80 -20 -8 -27 -4 -50 26 -14 19 -31 31
-37 28 -7 -4 -8 -2 -4 5 21 33 -442 506 -475 485 -7 -4 -9 -3 -5 4 12 20 -303
250 -325 236 -5 -3 -8 0 -7 6 5 21 -353 216 -378 206 -8 -3 -13 -1 -11 5 3 14
-213 99 -386 153 -350 109 -788 160 -1157 136z m395 -500 c3 -5 -5 -16 -17
-24 -27 -18 -191 -73 -329 -110 -61 -17 -147 -52 -235 -97 -154 -78 -175 -82
-264 -42 -325 146 -305 141 -626 151 -192 7 -234 15 -166 35 80 23 280 58 367
63 86 5 108 3 159 -15 32 -11 64 -18 70 -14 6 3 8 2 3 -2 -11 -12 242 -134
279 -135 19 0 78 24 150 60 151 77 199 89 519 129 39 5 73 9 77 10 4 0 9 -3
13 -9z m3595 -658 c0 -5 -24 -17 -54 -27 -30 -10 -52 -23 -49 -28 3 -6 1 -7
-5 -3 -6 3 -23 1 -39 -5 -147 -58 -984 -339 -1128 -379 -101 -28 -179 -64
-380 -175 -88 -48 -197 -108 -243 -132 -48 -27 -79 -49 -76 -55 4 -7 2 -8 -4
-4 -6 4 -45 -9 -87 -29 -119 -57 -204 -86 -269 -92 -82 -7 -183 27 -431 147
-387 188 -472 226 -627 281 -258 92 -406 111 -1098 139 -140 5 -366 15 -502
20 -136 6 -257 10 -270 10 -66 0 54 36 342 104 286 67 727 136 965 151 234 15
439 -45 849 -248 88 -44 167 -80 173 -80 7 0 11 -3 8 -5 -8 -9 56 -33 68 -25
6 3 7 1 3 -5 -9 -14 280 -155 379 -184 69 -20 80 -21 137 -9 75 15 209 71 356
148 306 160 478 242 572 272 200 64 851 169 1290 210 52 4 101 9 108 10 6 0
12 -3 12 -7z m-1120 -1343 c0 -28 -221 -109 -507 -185 -135 -36 -210 -67 -413
-174 -52 -27 -125 -59 -162 -70 -61 -20 -70 -20 -116 -7 -48 15 -136 51 -257
107 -151 70 -256 110 -328 124 -69 15 -327 30 -649 39 -170 4 -161 20 37 67
191 46 384 73 515 74 143 0 167 -8 460 -152 273 -134 257 -133 454 -32 80 40
143 77 140 82 -3 4 2 5 10 2 8 -3 31 3 53 14 68 34 239 70 473 97 298 35 290
34 290 14z"/>
<path d="M6618 3633 c-2 -5 -2 -216 0 -470 l2 -463 93 0 c187 0 307 40 388
127 51 56 69 98 76 182 8 102 -14 168 -81 234 -44 45 -66 58 -134 80 -45 15
-101 27 -124 27 -92 0 -88 -6 -88 151 l0 139 -64 0 c-36 0 -66 -3 -68 -7z
m270 -418 c57 -17 115 -62 138 -106 20 -39 17 -116 -6 -166 -31 -69 -137 -123
-240 -123 l-30 0 0 205 0 205 43 0 c24 0 67 -7 95 -15z"/>
<path d="M6320 3504 l0 -75 73 3 72 3 3 73 3 72 -76 0 -75 0 0 -76z"/>
<path d="M5040 3559 c-148 -14 -283 -71 -362 -152 -115 -119 -145 -274 -83
-430 69 -172 266 -277 523 -277 l72 0 0 43 c0 23 3 52 6 65 6 21 4 22 -67 22
-205 1 -373 90 -409 218 -15 54 -12 137 5 179 52 124 169 188 383 208 l72 7 0
52 c0 79 1 78 -140 65z"/>
<path d="M6195 3366 c-22 -7 -69 -27 -104 -44 -34 -18 -67 -32 -72 -32 -5 0
-9 16 -9 35 l0 35 -70 0 -69 0 0 -325 1 -325 69 0 69 0 0 224 0 223 103 41
c56 22 114 44 130 47 15 4 27 10 27 14 0 22 -24 121 -29 120 -3 0 -24 -6 -46
-13z"/>
<path d="M7447 3370 c-161 -40 -259 -203 -230 -382 14 -80 59 -156 121 -203
68 -53 153 -75 282 -75 l107 0 7 46 c3 26 6 52 6 59 0 9 -31 14 -113 16 -97 4
-119 8 -162 30 -56 28 -101 85 -110 139 l-6 35 213 0 213 0 -1 70 c-1 117 -58
213 -148 250 -44 18 -134 26 -179 15z m155 -151 c15 -19 35 -42 43 -51 13 -16
13 -18 0 -18 -158 -4 -280 1 -277 10 6 25 38 64 67 82 23 15 43 18 84 15 47
-3 58 -8 83 -38z"/>
<path d="M5297 3363 c-3 -5 -8 -34 -12 -65 l-7 -58 106 0 c116 0 163 -12 190
-51 26 -38 20 -46 -43 -53 -210 -24 -321 -105 -321 -234 0 -86 70 -158 183
-188 53 -14 271 -19 315 -7 l24 6 -4 241 c-3 261 -4 265 -64 333 -49 55 -112
75 -246 80 -64 2 -119 0 -121 -4z m298 -444 l0 -104 -76 1 c-126 2 -189 49
-163 121 12 36 58 61 141 77 103 20 98 25 98 -95z"/>
<path d="M6325 3035 l0 -325 68 0 67 0 0 325 0 325 -67 0 -68 0 0 -325z"/>
<path d="M4177 2543 c-2 -4 -5 -43 -6 -85 l-1 -78 43 0 c65 0 99 30 95 83 -2
29 -10 45 -28 58 -28 19 -96 34 -103 22z"/>
<path d="M4383 2526 c-22 -19 -28 -32 -28 -66 0 -77 79 -117 130 -65 53 53 20
155 -50 155 -13 0 -36 -11 -52 -24z m94 -12 c21 -21 24 -32 20 -62 -11 -65
-61 -89 -102 -48 -33 33 -33 79 0 111 31 32 50 31 82 -1z"/>
<path d="M4637 2543 c-4 -3 -7 -41 -7 -84 0 -84 4 -89 62 -81 73 11 106 101
51 140 -30 21 -95 36 -106 25z"/>
<path d="M6053 2535 c-24 -17 -39 -71 -30 -108 7 -25 54 -57 85 -57 10 0 31
11 46 25 20 18 26 34 26 65 0 73 -71 114 -127 75z m70 -6 c30 -16 37 -28 37
-71 0 -26 -7 -44 -22 -58 -27 -25 -39 -25 -72 1 -20 16 -26 29 -26 59 0 30 6
43 26 59 31 25 29 24 57 10z"/>
<path d="M7605 2525 c-52 -51 -18 -155 50 -155 16 0 39 12 57 30 27 27 30 36
25 73 -10 74 -82 103 -132 52z m89 -6 c37 -29 34 -92 -6 -122 -24 -18 -31 -19
-52 -8 -65 35 -47 143 25 150 4 1 18 -9 33 -20z"/>
</g>
</svg>
